<svg xmlns="http://www.w3.org/2000/svg" version="1.1" xmlns:xlink="http://www.w3.org/1999/xlink" width="59" height="32"><svg width="59" height="32" viewBox="0 0 59 32" fill="none" xmlns="http://www.w3.org/2000/svg">
<path d="M28.4404 0C30.5837 2.10726e-05 32.4251 0.535146 33.9639 1.60449C35.5025 2.67382 36.6022 4.1337 37.2617 5.98438H37.6328V0.411133H46V11.2461L50.6904 15.1758C51.1129 15.5331 51.4974 15.7473 51.8428 15.8184C52.1808 15.8832 52.4934 15.8407 52.7803 15.6904C53.0732 15.5328 53.3509 15.2991 53.6113 14.9912C53.7929 14.7765 53.9567 14.5457 54.1025 14.3008C54.2411 14.05 54.3485 13.8573 54.4238 13.7246L58.4395 15.8867C58.3172 16.1764 58.1263 16.5687 57.8682 17.0625C57.6171 17.5627 57.2508 18.1199 56.7695 18.7324C55.8795 19.8718 54.9144 20.7145 53.875 21.2607C52.8414 21.7998 51.7757 21.9988 50.6787 21.8574C49.5819 21.716 48.4954 21.1846 47.4199 20.2627L46 19.0078V32H37.2207V13.0381C37.2206 11.8731 36.9933 10.8586 36.54 9.99512C36.0867 9.11783 35.4753 8.4388 34.7061 7.95898C33.9231 7.46554 33.0436 7.21885 32.0684 7.21875C30.6258 7.21875 29.4643 7.67826 28.585 8.59668C27.6921 9.51512 27.2453 10.749 27.2451 12.2979V32H18.7334V12.71C18.7333 11.065 18.2874 9.741 17.3945 8.74023C16.5015 7.72584 15.2576 7.21883 13.6641 7.21875C12.2628 7.21875 11.0944 7.65785 10.1602 8.53516C9.2261 9.41256 8.75885 10.7288 8.75879 12.4834V32H0V10.7559C6.60169e-05 7.32844 0.927453 4.68193 2.78223 2.81738C4.62325 0.939338 7.02086 2.5871e-05 9.97461 0C12.2965 1.99459e-05 14.31 0.548732 16.0137 1.64551C17.7032 2.72849 18.8709 4.17501 19.5166 5.98438H19.8467C20.3551 4.1476 21.3717 2.69427 22.8965 1.625C24.4215 0.542046 26.2698 4.18688e-05 28.4404 0ZM42.8145 6.23926C41.8263 6.23944 41.0249 7.04026 41.0244 8.02832C41.0244 9.01676 41.8261 9.81818 42.8145 9.81836C43.8029 9.81829 44.6045 9.01683 44.6045 8.02832C44.604 7.04019 43.8027 6.23933 42.8145 6.23926Z" fill="#0084FF"></path>
</svg><style>@media (prefers-color-scheme: light) { :root { filter: none; } }
@media (prefers-color-scheme: dark) { :root { filter: none; } }
</style></svg>